<svg width="28" height="23" viewBox="0 0 28 23" fill="none" xmlns="http://www.w3.org/2000/svg">
<path d="M1.5 9.54594C0.671573 9.54594 -7.24234e-08 10.2175 0 11.0459C7.24234e-08 11.8744 0.671573 12.5459 1.5 12.5459L1.5 9.54594ZM27.5607 12.1066C28.1464 11.5208 28.1464 10.5711 27.5607 9.98528L18.0147 0.439341C17.4289 -0.146446 16.4792 -0.146446 15.8934 0.439341C15.3076 1.02513 15.3076 1.97488 15.8934 2.56066L24.3787 11.0459L15.8934 19.5312C15.3076 20.117 15.3076 21.0668 15.8934 21.6525C16.4792 22.2383 17.4289 22.2383 18.0147 21.6525L27.5607 12.1066ZM1.5 12.5459L26.5 12.5459L26.5 9.54594L1.5 9.54594L1.5 12.5459Z" fill="#B9BABE"/>
</svg>
